<?xml version="1.0" encoding="UTF-8"?>
<svg xmlns="http://www.w3.org/2000/svg" xmlns:xlink="http://www.w3.org/1999/xlink" width="30px" height="30px" viewBox="0 0 30 30" version="1.1">
<defs>
<linearGradient id="linear0" gradientUnits="userSpaceOnUse" x1="10" y1="0" x2="10" y2="20" gradientTransform="matrix(1.5,0,0,1.5,0,0)">
<stop offset="0" style="stop-color:rgb(96.078431%,5.098039%,23.529412%);stop-opacity:1;"/>
<stop offset="1" style="stop-color:rgb(84.313725%,0%,16.862745%);stop-opacity:1;"/>
</linearGradient>
</defs>
<g id="surface1">
<path style=" stroke:none;fill-rule:nonzero;fill:url(#linear0);" d="M 30 15 C 30 23.285156 23.285156 30 15 30 C 6.714844 30 0 23.285156 0 15 C 0 6.714844 6.714844 0 15 0 C 23.285156 0 30 6.714844 30 15 Z M 30 15 "/>
<path style=" stroke:none;fill-rule:nonzero;fill:rgb(89.019608%,89.019608%,89.019608%);fill-opacity:1;" d="M 14.996094 2.5 L 14.835938 3.070312 L 14.835938 19.601562 L 14.996094 19.769531 L 22.496094 15.230469 Z M 14.996094 2.5 "/>
<path style=" stroke:none;fill-rule:nonzero;fill:rgb(100%,100%,100%);fill-opacity:1;" d="M 14.996094 2.5 L 7.5 15.230469 L 14.996094 19.769531 Z M 14.996094 2.5 "/>
<path style=" stroke:none;fill-rule:nonzero;fill:rgb(89.019608%,89.019608%,89.019608%);fill-opacity:1;" d="M 14.996094 21.222656 L 14.90625 21.335938 L 14.90625 27.222656 L 14.996094 27.5 L 22.5 16.6875 Z M 14.996094 21.222656 "/>
<path style=" stroke:none;fill-rule:nonzero;fill:rgb(100%,100%,100%);fill-opacity:1;" d="M 14.996094 27.5 L 14.996094 21.222656 L 7.5 16.6875 Z M 14.996094 27.5 "/>
<path style=" stroke:none;fill-rule:nonzero;fill:rgb(78.039216%,78.039216%,78.039216%);fill-opacity:1;" d="M 14.996094 19.769531 L 22.496094 15.230469 L 14.996094 11.746094 Z M 14.996094 19.769531 "/>
<path style=" stroke:none;fill-rule:nonzero;fill:rgb(90.588235%,90.588235%,90.588235%);fill-opacity:1;" d="M 7.5 15.230469 L 14.996094 19.769531 L 14.996094 11.746094 Z M 7.5 15.230469 "/>
</g>
</svg>
