<?xml version="1.0" encoding="UTF-8"?>
<svg width="79px" height="24px" viewBox="0 0 79 24" version="1.1" xmlns="http://www.w3.org/2000/svg" xmlns:xlink="http://www.w3.org/1999/xlink">
    <g id="Page-1" stroke="none" stroke-width="1" fill="none" fill-rule="evenodd">
        <g id="avalon-logo" fill="#000000" fill-rule="nonzero">
            <path d="M39.9520874,0.625395505 L41.798116,0.625395505 L45.614927,10.5353921 L43.7551212,10.5353921 L42.8251098,7.91220235 L38.8694426,7.91220235 L37.9395397,10.5353921 L36.1490535,10.5353921 L39.9520874,0.625395505 Z M39.3413369,6.59361044 L42.3671012,6.59361044 L40.8819903,2.33256794 L40.8403334,2.33256794 L39.3413369,6.59361044 Z" id="Shape"></path>
            <polygon id="Path" points="45.3847294 3.35967022 47.1057875 3.35967022 48.9240449 8.86987651 48.9518162 8.86987651 50.7006455 3.35967022 52.3383898 3.35967022 49.7707426 10.5353921 47.994142 10.5353921"></polygon>
            <path d="M59.2998608,8.93919615 C59.2998608,9.13359489 59.3229673,9.27234266 59.3691804,9.3556564 C59.4247229,9.43886167 59.5264785,9.48051854 59.6745557,9.48051854 C59.7208773,9.48051854 59.7763113,9.48051854 59.8411832,9.48051854 C59.9059466,9.48051854 59.9799309,9.47129762 60.0632447,9.45274729 L60.0632447,10.5492777 C60.0077022,10.567828 59.9337178,10.5862699 59.8411832,10.6048202 C59.7578694,10.6325914 59.6699995,10.655698 59.5774648,10.6742483 C59.4849301,10.6926902 59.3923955,10.7065758 59.2998608,10.7157967 C59.2073261,10.7251261 59.1286771,10.7296823 59.0639136,10.7296823 C58.7399881,10.7296823 58.4717135,10.6649189 58.2588729,10.5353921 C58.0460323,10.4058652 57.9072845,10.179139 57.8424126,9.85532192 C57.5278164,10.1606972 57.1392359,10.3827587 56.6765626,10.5215064 C56.2232186,10.6603627 55.7836518,10.7296823 55.3579707,10.7296823 C55.0341536,10.7296823 54.7242221,10.6834692 54.4280678,10.5909346 C54.1320219,10.5076208 53.8683035,10.3827587 53.6369126,10.2161312 C53.4148511,10.0403913 53.2344465,9.82288597 53.0955902,9.56383229 C52.9660634,9.2954492 52.9013,8.98551773 52.9013,8.63392938 C52.9013,8.18969788 52.979949,7.82888861 53.1372471,7.5512846 C53.3038746,7.27368059 53.5166067,7.05628379 53.7757689,6.8989857 C54.0440435,6.74168761 54.3401978,6.63060261 54.6640149,6.56583919 C54.9971614,6.49185485 55.3303079,6.43631235 55.6633459,6.39932018 C55.9501709,6.34377769 56.2232186,6.30678551 56.4822723,6.28823519 C56.741326,6.26046394 56.9680522,6.21880707 57.1623425,6.16337305 C57.3659621,6.10783055 57.5232602,6.02451681 57.6342367,5.91354029 C57.7545427,5.79323437 57.8147499,5.61738596 57.8147499,5.38610353 C57.8147499,5.18248386 57.7637636,5.01596485 57.662008,4.88643801 C57.5694733,4.75691117 57.4491674,4.6597118 57.3011987,4.59494838 C57.1623425,4.52085556 57.0050444,4.47464246 56.8293045,4.45609214 C56.653456,4.42832089 56.486937,4.41454375 56.3296389,4.41454375 C55.8854074,4.41454375 55.5199335,4.50696993 55.2331085,4.69203927 C54.9462836,4.87710861 54.7843208,5.16404202 54.7473286,5.55262254 L53.1650184,5.55262254 C53.1927896,5.08994919 53.3038746,4.70592489 53.4981649,4.40065812 C53.6924551,4.09528287 53.9376232,3.85000633 54.2337775,3.66504547 C54.5391528,3.47997613 54.8815202,3.35034081 55.2608798,3.27635647 C55.6402394,3.20237213 56.0288199,3.16537996 56.4267298,3.16537996 C56.7783182,3.16537996 57.1253503,3.20237213 57.4677177,3.27635647 C57.8100852,3.35034081 58.1154604,3.47064673 58.383735,3.63727422 C58.661339,3.80379323 58.8834005,4.02119004 59.050028,4.28957313 C59.216547,4.54862681 59.2998608,4.86788769 59.2998608,5.24724728 L59.2998608,8.93919615 Z M57.7175505,6.94053409 C57.4769387,7.09794066 57.1808928,7.19503155 56.8293045,7.23202372 C56.4776076,7.25979497 56.1260193,7.30611655 55.7744309,7.37087997 C55.6078034,7.39865121 55.4459491,7.44019961 55.288651,7.4957421 C55.1313529,7.54206368 54.9924967,7.61138332 54.8721908,7.70391799 C54.7518849,7.78723173 54.654794,7.90287295 54.5808096,8.05095012 C54.5159377,8.18969788 54.4836103,8.36088159 54.4836103,8.56450126 C54.4836103,8.74034967 54.5344881,8.88831836 54.6362436,9.00862427 C54.7381077,9.12893019 54.8583052,9.22612956 54.9971614,9.30011391 C55.1452386,9.36487733 55.3025367,9.4111989 55.4690557,9.43886167 C55.6449041,9.46663292 55.8022022,9.48051854 55.9409499,9.48051854 C56.1167984,9.48051854 56.3064239,9.45741199 56.5100436,9.4111989 C56.7135548,9.36487733 56.9032888,9.28622828 57.0791372,9.17525177 C57.2640981,9.06416677 57.4168399,8.92541901 57.5371459,8.75879152 C57.6574518,8.58305158 57.7175505,8.370211 57.7175505,8.12037824 L57.7175505,6.94053409 Z" id="Shape"></path>
            <polygon id="Path" points="61.0440254 0.625395505 62.6262272 0.625395505 62.6262272 10.5353921 61.0440254 10.5353921"></polygon>
            <path d="M67.639697,10.7296823 C67.0660471,10.7296823 66.552496,10.6371477 66.099152,10.4520783 C65.6549205,10.2577881 65.2755609,9.99406968 64.9609648,9.66103166 C64.6555895,9.32788515 64.4196424,8.92997523 64.2531234,8.46730189 C64.0958253,8.00473702 64.0171762,7.4957421 64.0171762,6.94053409 C64.0171762,6.39465548 64.0958253,5.89032526 64.2531234,5.42765192 C64.4196424,4.96508706 64.6555895,4.56717713 64.9609648,4.23403063 C65.2755609,3.90099261 65.6549205,3.64183044 66.099152,3.45676111 C66.552496,3.26247085 67.0660471,3.16537996 67.639697,3.16537996 C68.2134553,3.16537996 68.7223418,3.26247085 69.1664648,3.45676111 C69.6199172,3.64183044 69.9992768,3.90099261 70.304652,4.23403063 C70.6192482,4.56717713 70.8551954,4.96508706 71.0124934,5.42765192 C71.1790125,5.89032526 71.2623262,6.39465548 71.2623262,6.94053409 C71.2623262,7.4957421 71.1790125,8.00473702 71.0124934,8.46730189 C70.8551954,8.92997523 70.6192482,9.32788515 70.304652,9.66103166 C69.9992768,9.99406968 69.6199172,10.2577881 69.1664648,10.4520783 C68.7223418,10.6371477 68.2134553,10.7296823 67.639697,10.7296823 Z M67.639697,9.48051854 C67.9913938,9.48051854 68.2966606,9.4065342 68.5558227,9.25845703 C68.8148764,9.11037987 69.027717,8.91608961 69.194236,8.67558625 C69.3608635,8.43497442 69.4810609,8.16659133 69.5551538,7.87054548 C69.638359,7.56517023 69.6800159,7.25523875 69.6800159,6.94053409 C69.6800159,6.63526732 69.638359,6.32989206 69.5551538,6.02451681 C69.4810609,5.71914155 69.3608635,5.45086695 69.194236,5.21947603 C69.027717,4.97897268 68.8148764,4.78457394 68.5558227,4.63660525 C68.2966606,4.48852809 67.9913938,4.41454375 67.639697,4.41454375 C67.2881086,4.41454375 66.9827334,4.48852809 66.7236797,4.63660525 C66.464626,4.78457394 66.2517854,4.97897268 66.0852664,5.21947603 C65.9186389,5.45086695 65.7937768,5.71914155 65.710463,6.02451681 C65.6364787,6.32989206 65.5994865,6.63526732 65.5994865,6.94053409 C65.5994865,7.25523875 65.6364787,7.56517023 65.710463,7.87054548 C65.7937768,8.16659133 65.9186389,8.43497442 66.0852664,8.67558625 C66.2517854,8.91608961 66.464626,9.11037987 66.7236797,9.25845703 C66.9827334,9.4065342 67.2881086,9.48051854 67.639697,9.48051854 Z" id="Shape"></path>
            <path d="M72.5777722,3.35967022 L74.0767687,3.35967022 L74.0767687,4.41454375 L74.1045399,4.44220651 C74.3450433,4.04440507 74.6596395,3.73436511 75.0483285,3.5123036 C75.436909,3.28102117 75.8672549,3.16537996 76.3391491,3.16537996 C77.1256396,3.16537996 77.745611,3.36889114 78.198955,3.77602199 C78.6524074,4.18315283 78.8791336,4.79390334 78.8791336,5.60816504 L78.8791336,10.5353921 L77.2968233,10.5353921 L77.2968233,6.02451681 C77.278273,5.46008787 77.1579671,5.05295702 76.9359055,4.80312427 C76.713844,4.54407059 76.3669204,4.41454375 75.8950261,4.41454375 C75.626643,4.41454375 75.3860312,4.46542154 75.1731906,4.56717713 C74.9604585,4.6597118 74.7799454,4.79390334 74.6319767,4.96964328 C74.4838995,5.13627077 74.3682583,5.33522573 74.2849446,5.56650816 C74.2016308,5.79779059 74.159974,6.04306713 74.159974,6.30212081 L74.159974,10.5353921 L72.5777722,10.5353921 L72.5777722,3.35967022 Z" id="Path"></path>
            <polygon id="Path" points="36.7538375 13.8956047 38.4887812 13.8956047 38.4887812 22.3067132 43.5270932 22.3067132 43.5270932 23.8057097 36.7538375 23.8057097"></polygon>
            <path d="M50.5115623,22.2095138 C50.5115623,22.4039126 50.5346689,22.5426603 50.5809904,22.6259741 C50.6365329,22.7091793 50.7382885,22.7508362 50.8863657,22.7508362 C50.9325788,22.7508362 50.9881213,22.7508362 51.0528847,22.7508362 C51.1176481,22.7508362 51.1916325,22.7416153 51.2749462,22.723065 L51.2749462,23.8195954 C51.2194037,23.8380372 51.1454194,23.8565875 51.0528847,23.8751379 C50.969571,23.9029091 50.881701,23.9260157 50.7891663,23.9444575 C50.6966317,23.9630078 50.604097,23.9768935 50.5115623,23.9861144 C50.4190276,23.9953353 50.3403786,24 50.2756152,24 C49.9517981,24 49.683415,23.9352366 49.4705744,23.8057097 C49.2577338,23.6761829 49.1189861,23.4494567 49.0542226,23.1256396 C48.7396265,23.4309064 48.3509375,23.6530764 47.8883726,23.7918241 C47.4349202,23.9305719 46.9953534,24 46.5697807,24 C46.2458551,24 45.9359236,23.9537869 45.6398778,23.8612522 C45.3437234,23.7779385 45.0800051,23.6530764 44.8487226,23.4864489 C44.6266611,23.3107089 44.446148,23.0932036 44.3074002,22.83415 C44.1778734,22.5657669 44.11311,22.2558354 44.11311,21.9041386 C44.11311,21.4600155 44.191759,21.0992063 44.3490571,20.8216023 C44.5155761,20.5439983 44.7284167,20.326493 44.9874704,20.1691949 C45.2558535,20.0118968 45.5518993,19.9009203 45.8758249,19.8361569 C46.2088629,19.762064 46.5420094,19.70663 46.8751559,19.6695294 C47.1619809,19.6140954 47.4349202,19.5769947 47.6939739,19.5585529 C47.953136,19.5307816 48.1797537,19.4891247 48.3741525,19.4335822 C48.5776637,19.3781482 48.7349618,19.2948345 48.8460468,19.1837495 C48.9663527,19.063552 49.0264514,18.8877036 49.0264514,18.6563127 C49.0264514,18.4528015 48.9755736,18.2862825 48.873818,18.1566472 C48.7812833,18.0271204 48.6609774,17.9300295 48.5129003,17.8652661 C48.3741525,17.7911732 48.2168544,17.7449601 48.041006,17.7264098 C47.8651576,17.6986386 47.6986386,17.6847529 47.5413405,17.6847529 C47.0972175,17.6847529 46.731635,17.7772876 46.4448101,17.9623569 C46.1579851,18.1474263 45.9960223,18.4342512 45.9590302,18.8229402 L44.3768284,18.8229402 C44.4044911,18.3602669 44.5155761,17.9762426 44.7098664,17.6708673 C44.9041566,17.3656005 45.1494332,17.120324 45.445479,16.9352547 C45.7508543,16.7501853 46.0932217,16.6206585 46.4725813,16.5466741 C46.8519409,16.4725813 47.2406299,16.4355891 47.6385398,16.4355891 C47.9901282,16.4355891 48.3370518,16.4725813 48.6794193,16.5466741 C49.0217867,16.6206585 49.3271619,16.7409644 49.595545,16.9074834 C49.873149,17.0741109 50.0952105,17.2915077 50.2617296,17.5598908 C50.4282486,17.8189445 50.5115623,18.1382054 50.5115623,18.517565 L50.5115623,22.2095138 Z M48.929252,20.2108518 C48.6887487,20.3681498 48.3925943,20.4653492 48.041006,20.5023414 C47.6894176,20.5301126 47.3377208,20.5763257 46.9861325,20.6411976 C46.8196134,20.6688604 46.6576507,20.7105173 46.5003526,20.7660598 C46.3430545,20.8123813 46.2043067,20.881701 46.0840008,20.9742357 C45.9636949,21.0575494 45.8664955,21.1731906 45.7925112,21.3212678 C45.7277477,21.4600155 45.6953118,21.6311993 45.6953118,21.8348189 C45.6953118,22.0105589 45.7461896,22.158636 45.8480537,22.2789419 C45.9498093,22.3992479 46.0701152,22.4963388 46.2088629,22.5704316 C46.3569401,22.635195 46.5142382,22.6814081 46.6807572,22.7091793 C46.8566056,22.7369506 47.0139037,22.7508362 47.1526515,22.7508362 C47.3284999,22.7508362 47.5182339,22.7277297 47.7217451,22.6814081 C47.9253648,22.635195 48.1149903,22.556546 48.2908387,22.445461 C48.4759081,22.3344844 48.6285415,22.1956282 48.7488474,22.0291092 C48.8691533,21.8532608 48.929252,21.6405287 48.929252,21.3906959 L48.929252,20.2108518 Z" id="Shape"></path>
            <path d="M52.2557269,13.8956047 L53.8380372,13.8956047 L53.8380372,17.5598908 L53.8658085,17.5598908 C53.976785,17.3840424 54.1109765,17.2267443 54.2682746,17.0879965 C54.4255727,16.9491403 54.5967564,16.8334991 54.7818257,16.7409644 C54.976116,16.6392088 55.175071,16.565116 55.3786906,16.5189029 C55.5914227,16.4633604 55.7997071,16.4355891 56.0032183,16.4355891 C56.5676472,16.4355891 57.0580918,16.5374532 57.4744436,16.7409644 C57.9001248,16.9352547 58.2517131,17.2083024 58.5293171,17.5598908 C58.8069211,17.9022582 59.015097,18.3047244 59.1539532,18.7673977 C59.292701,19.2300711 59.3621291,19.7250719 59.3621291,20.2525086 C59.3621291,20.7336238 59.2973657,21.2009619 59.1678389,21.6543058 C59.047533,22.1077582 58.8577989,22.5102244 58.5987452,22.8619212 C58.3489125,23.2042886 58.0296516,23.4818926 57.6410711,23.6946247 C57.2523821,23.8982444 56.7943734,24 56.2669367,24 C56.0263248,24 55.7811568,23.9815582 55.531324,23.9444575 C55.2907122,23.9166863 55.0594297,23.8565875 54.8373682,23.7640529 C54.6153067,23.6715182 54.4116871,23.5512123 54.2266177,23.4032436 C54.0508778,23.2551664 53.9028006,23.0608762 53.7824947,22.8202643 L53.7547235,22.8202643 L53.7547235,23.8057097 L52.2557269,23.8057097 L52.2557269,13.8956047 Z M57.7798188,20.2247374 C57.7798188,19.9009203 57.738162,19.5863241 57.6549567,19.2809489 C57.571643,18.9755736 57.4466723,18.707299 57.2801533,18.4759081 C57.1136343,18.2352962 56.9054584,18.0456707 56.6556257,17.9068144 C56.4057929,17.7588458 56.1188595,17.6847529 55.7950424,17.6847529 C55.1288579,17.6847529 54.6245277,17.9161438 54.2821602,18.3788172 C53.9490137,18.8413821 53.7824947,19.4567973 53.7824947,20.2247374 C53.7824947,20.5856551 53.8241516,20.9233579 53.9074653,21.237954 C54,21.5433293 54.1340831,21.8070477 54.3099315,22.0291092 C54.4857799,22.2511707 54.6939558,22.4270191 54.9344591,22.556546 C55.1842919,22.6860728 55.4712253,22.7508362 55.7950424,22.7508362 C56.1559602,22.7508362 56.4612269,22.6768519 56.7110597,22.5287747 C56.9608924,22.3806975 57.1645121,22.191072 57.3218102,21.9596811 C57.4883292,21.7191777 57.6039704,21.4507946 57.6688423,21.1546403 C57.7428267,20.8493735 57.7798188,20.5393336 57.7798188,20.2247374 Z" id="Shape"></path>
            <path d="M61.8927842,21.5016724 C61.9389973,21.9643458 62.1148457,22.2881629 62.4202209,22.4732322 C62.7254877,22.6583015 63.0910702,22.7508362 63.5166429,22.7508362 C63.66472,22.7508362 63.831239,22.7416153 64.0163084,22.723065 C64.2105986,22.6952937 64.3911118,22.6490806 64.5576308,22.5843172 C64.7241498,22.5195538 64.8583413,22.4270191 64.9600969,22.3067132 C65.0711819,22.1771864 65.1220597,22.0105589 65.1128388,21.8070477 C65.1036179,21.603428 65.029525,21.436909 64.8907773,21.3073822 C64.751921,21.1778553 64.5715164,21.0759912 64.3494549,21.0020069 C64.1366143,20.9186932 63.8914462,20.8493735 63.6138422,20.793831 C63.3362382,20.7382885 63.0539695,20.6781898 62.7671446,20.6134264 C62.4710987,20.548663 62.1842738,20.4700139 61.9066698,20.3774793 C61.6382867,20.2849446 61.3931187,20.159974 61.1710572,20.0026759 C60.9582166,19.8453778 60.7870329,19.6464228 60.657506,19.405811 C60.5278707,19.1559782 60.4631073,18.8507115 60.4631073,18.4897937 C60.4631073,18.1012132 60.5556419,17.7772876 60.7407113,17.5182339 C60.9350015,17.2498508 61.1756134,17.0371187 61.4624383,16.8798206 C61.7585926,16.7131932 62.0824097,16.5975519 62.4341066,16.5327885 C62.7949158,16.4680251 63.1372833,16.4355891 63.4611004,16.4355891 C63.831239,16.4355891 64.1829359,16.477246 64.5159739,16.5605598 C64.8583413,16.6345441 65.1637166,16.7595147 65.4320997,16.9352547 C65.7097037,17.1111031 65.9363214,17.3423855 66.1121698,17.6293189 C66.2972391,17.9068144 66.4128804,18.2446256 66.4590935,18.6425356 L64.8074635,18.6425356 C64.7334792,18.2630675 64.5576308,18.0086785 64.2800268,17.8791517 C64.0117522,17.7495164 63.7017122,17.6847529 63.3501238,17.6847529 C63.2390389,17.6847529 63.1049558,17.6940823 62.9475492,17.7125242 C62.7995805,17.7310745 62.6561681,17.7680667 62.5173118,17.8236092 C62.387785,17.8698223 62.2768085,17.9439151 62.1842738,18.0456707 C62.0917391,18.1382054 62.0454176,18.2630675 62.0454176,18.4203656 C62.0454176,18.6147643 62.110181,18.7720624 62.2397078,18.8922598 C62.3785641,19.0125658 62.554304,19.1144298 62.7671446,19.1976351 C62.9892061,19.2717279 63.2390389,19.3364913 63.5166429,19.3920338 C63.7942469,19.4474679 64.0810718,19.5076751 64.3772261,19.5724385 C64.6640511,19.6372019 64.9463198,19.7158509 65.2238153,19.8083856 C65.5014193,19.9009203 65.7466958,20.0257824 65.9594279,20.1830805 C66.1815979,20.3403786 66.3573379,20.5393336 66.4868647,20.7799454 C66.6257209,21.0205572 66.6951491,21.3166031 66.6951491,21.6681914 C66.6951491,22.0938726 66.5979497,22.4547904 66.4036594,22.7508362 C66.2092607,23.0469905 65.9548717,23.2874939 65.6402755,23.4725632 C65.3349003,23.6576326 64.9925329,23.7918241 64.6131733,23.8751379 C64.2338137,23.9583431 63.8590103,24 63.4888716,24 C63.0355277,24 62.6145112,23.9491222 62.2258222,23.8473666 C61.8464626,23.7455025 61.5134246,23.5928692 61.2264912,23.389358 C60.9488872,23.1765174 60.7268257,22.9173552 60.5603066,22.6120884 C60.4030086,22.2974923 60.3196948,21.9273536 60.3104739,21.5016724 L61.8927842,21.5016724 Z" id="Path"></path>
            <polygon id="Path" points="10.8541105 0 15.6459527 0 4.79173371 23.9175541 0 23.9175541"></polygon>
            <polygon id="Path" points="20.44029 0 15.6484478 0 26.5025584 23.9175541 31.2944005 23.9175541"></polygon>
            <polygon id="Path" points="15.6067909 11.812978 20.3902801 23.9588855 10.8233018 23.9588855"></polygon>
        </g>
    </g>
</svg>