<svg width="16" height="17" viewBox="0 0 16 17" fill="none" xmlns="http://www.w3.org/2000/svg">
<g clip-path="url(#clip0_8581_27398)">
<path d="M12.5 2H10V5L8 3.5L6 5V2H3.5V8H12.5V2ZM12.5 0.5H14V2V8V9.5H12.5H3.5H2V8V2V0.5H3.5H6H10H12.5ZM0 10.5H0.75H2H2.75H3.5H7.25H8H8.75H12.5H13.25H14H15.25H16V12H15.25H14V15H15.25H16V16.5H15.25H14H13.25H12.5H8.75H8H7.25H3.5H2.75H2H0.75H0V15H0.75H2V12H0.75H0V10.5ZM3.5 15H7.25V12H3.5V15ZM8.75 15H12.5V12H8.75V15Z" fill="#092306"/>
</g>
<defs>
<clipPath id="clip0_8581_27398">
<rect width="16" height="16" fill="white" transform="translate(0 0.5)"/>
</clipPath>
</defs>
</svg>
