<svg width="16" height="17" viewBox="0 0 16 17" fill="none" xmlns="http://www.w3.org/2000/svg">
<g clip-path="url(#clip0_11049_1578)">
<path d="M0 9.25V8.5V3.5V2.75H0.75H9.5V2V0.5H11L12.9406 2.44062L14 3.5L12.9406 4.55937L11 6.5H9.5V5V4.25H1.5V8.5V9.25H0ZM11 4.37812L11.8781 3.5L11 2.62188V4.37812ZM16 7.75V8.5V13.5V14.25H15.25H6.5V15V16.5H5L3.05938 14.5594L2 13.5L3.05938 12.4406L5 10.5H6.5V12V12.75H14.5V8.5V7.75H16ZM5 14.3781V12.6219L4.12187 13.5L5 14.3781Z" fill="#092306"/>
</g>
<defs>
<clipPath id="clip0_11049_1578">
<rect width="16" height="16" fill="white" transform="translate(0 0.5)"/>
</clipPath>
</defs>
</svg>
