<svg width="124" height="24" viewBox="0 0 124 24" fill="none" xmlns="http://www.w3.org/2000/svg">
<path d="M18.7229 10.7918C17.3152 9.4954 15.5889 8.59456 13.72 8.1847C13.8151 8.10367 13.915 8.01788 14.0101 7.92732C14.8376 7.09799 15.1324 6.05419 14.6664 5.58713C14.2479 5.16769 13.3633 5.36309 12.5882 6.01132C12.4407 4.86263 11.8653 4 11.1805 4C10.4957 4 9.9155 4.85787 9.76807 6.01132C8.98812 5.36786 8.10833 5.17246 7.68987 5.58713C7.22854 6.05419 7.51867 7.09799 8.34612 7.92732C8.44124 8.02264 8.54113 8.10843 8.6362 8.18946C4.00898 9.21415 0.580176 13.1367 0.180722 17.8696L0 20H2.79157L2.95323 18.1078C3.30515 13.9279 6.79579 10.7203 10.9807 10.7203H11.3992C15.5842 10.7203 19.0701 13.9279 19.422 18.1078L19.5837 20H22.3752L22.1992 17.8696C21.971 15.1576 20.7298 12.6315 18.7277 10.7918H18.7229Z" fill="black"/>
<path d="M8.46025 14.2996C7.9086 14.2996 7.45685 15.1003 7.45685 16.0869C7.45685 17.0735 7.90384 17.8743 8.46025 17.8743C9.01666 17.8743 9.4637 17.0735 9.4637 16.0869C9.4637 15.1003 9.01666 14.2996 8.46025 14.2996ZM13.915 14.2996C13.3634 14.2996 12.9116 15.1003 12.9116 16.0869C12.9116 17.0735 13.3586 17.8743 13.915 17.8743C14.4714 17.8743 14.9185 17.0735 14.9185 16.0869C14.9185 15.1003 14.4714 14.2996 13.915 14.2996ZM30.2458 8.00353H25.5615V19.9666H30.2458C33.6603 19.9666 36.352 17.3357 36.352 14.0184C36.352 10.7012 33.6746 8.00353 30.2458 8.00353ZM30.1792 17.369H28.3958V10.6011H30.1792C31.9959 10.6011 33.413 12.1072 33.413 14.0184C33.413 15.8963 31.9959 17.369 30.1792 17.369ZM43.9279 7.99872C40.4607 7.99872 37.7502 10.6344 37.7502 13.966C37.7502 17.2975 40.4563 19.9332 43.9181 19.9332C47.3804 19.9332 50.0864 17.3071 50.0864 13.966C50.0864 10.6249 47.3853 7.99872 43.923 7.99872H43.9279ZM43.9279 17.3214C42.0779 17.3214 40.6751 15.882 40.6751 13.966C40.6751 12.05 42.0779 10.6106 43.9279 10.6106C45.7779 10.6106 47.1758 12.05 47.1758 13.966C47.1758 15.882 45.773 17.3214 43.9279 17.3214ZM56.2542 8.00353H51.5699V19.9666H56.2542C59.6689 19.9666 62.3607 17.3357 62.3607 14.0184C62.3607 10.6535 59.6689 8.00353 56.2542 8.00353ZM56.1876 17.369H54.4042V10.6011H56.1876C58.0045 10.6011 59.4214 12.1072 59.4214 14.0184C59.4214 15.8963 58.0045 17.369 56.1876 17.369ZM69.9362 7.99872C66.4695 7.99872 63.7684 10.6249 63.7684 13.966C63.7684 17.3071 66.4744 19.9332 69.9362 19.9332C73.3985 19.9332 76.1044 17.3071 76.1044 13.966C76.1044 10.6249 73.3985 7.99872 69.9362 7.99872ZM69.9362 17.3214C68.091 17.3214 66.6834 15.882 66.6834 13.966C66.6834 12.05 68.0862 10.6106 69.9362 10.6106C71.7862 10.6106 73.1841 12.05 73.1841 13.966C73.1841 15.882 71.7813 17.3214 69.9362 17.3214Z" fill="black"/>
</svg>
