<svg width="20" height="17" viewBox="0 0 20 17" fill="none" xmlns="http://www.w3.org/2000/svg">
<g clip-path="url(#clip0_11049_1583)">
<path d="M16 6V4H15.4219H5V4.5C5 5.60312 4.10312 6.5 3 6.5H2.5V9.42188L1.58438 10.3344L1 10.9219V4V2.5H2.5H11.9875H12H16V0.5H16.75L20 3.25L16.75 6H16ZM17.5 10.5V7.57812L18.4156 6.6625L19 6.07812V13V14.5H17.5H4.57812H4V16.5H3.25L0 13.75L3.25 11H4V13H8H8.0125H15V12.5C15 11.3969 15.8969 10.5 17 10.5H17.5ZM10 5.5C10.7956 5.5 11.5587 5.81607 12.1213 6.37868C12.6839 6.94129 13 7.70435 13 8.5C13 9.29565 12.6839 10.0587 12.1213 10.6213C11.5587 11.1839 10.7956 11.5 10 11.5C9.20435 11.5 8.44129 11.1839 7.87868 10.6213C7.31607 10.0587 7 9.29565 7 8.5C7 7.70435 7.31607 6.94129 7.87868 6.37868C8.44129 5.81607 9.20435 5.5 10 5.5Z" fill="#092306"/>
</g>
<defs>
<clipPath id="clip0_11049_1583">
<rect width="20" height="16" fill="white" transform="translate(0 0.5)"/>
</clipPath>
</defs>
</svg>
