<svg width="30" height="30" viewBox="0 0 30 30" fill="none" xmlns="http://www.w3.org/2000/svg">
<g clip-path="url(#clip0_235_9)">
<path opacity="0.981" fill-rule="evenodd" clip-rule="evenodd" d="M12.54 -0.0599976C14.1 -0.0599976 15.66 -0.0599976 17.22 -0.0599976C22.594 0.97203 26.454 3.97203 28.8 8.94C29.3137 10.2371 29.6938 11.5571 29.94 12.9C29.94 14.22 29.94 15.54 29.94 16.86C28.4996 24.1404 24.1396 28.5004 16.86 29.94C15.58 29.94 14.3 29.94 13.02 29.94C7.22055 28.9619 3.16055 25.7618 0.840002 20.34C0.44302 19.2704 0.14302 18.1904 -0.0599976 17.1C-0.0599976 15.62 -0.0599976 14.14 -0.0599976 12.66C1.40607 5.71393 5.60607 1.47393 12.54 -0.0599976Z" fill="#DAE372"/>
<path fill-rule="evenodd" clip-rule="evenodd" d="M11.34 5.7C11.5109 5.45826 11.5909 5.17827 11.58 4.86C12.8288 2.59769 14.6288 2.05769 16.98 3.24C17.9162 3.95614 18.4762 4.89613 18.66 6.06C20.1306 5.00117 21.6507 4.94117 23.22 5.88C24.9643 7.51085 25.1243 9.29085 23.7 11.22C26.8411 11.9824 27.8212 13.8624 26.64 16.86C25.9353 17.8832 24.9552 18.4632 23.7 18.6C24.8275 19.9477 24.9676 21.4078 24.12 22.98C22.908 24.5038 21.3681 24.9637 19.5 24.36C19.2 24.14 18.9 23.92 18.6 23.7C18.1186 26.2522 16.5785 27.3922 13.98 27.12C12.379 26.5381 11.459 25.3981 11.22 23.7C9.29943 25.1017 7.51944 24.9418 5.88001 23.22C4.94349 21.6479 5.00349 20.1278 6.06001 18.66C3.0551 17.8505 2.0751 15.9706 3.12001 13.02C3.84486 12.0074 4.82486 11.4074 6.06001 11.22C4.55916 8.81945 4.99915 6.87944 7.38001 5.4C8.77656 4.99639 10.0565 5.21639 11.22 6.06C11.3263 5.961 11.3663 5.841 11.34 5.7Z" fill="#060603"/>
<path fill-rule="evenodd" clip-rule="evenodd" d="M14.34 3.9C16.3259 3.86561 17.2659 4.82561 17.16 6.78C17.073 7.07393 16.953 7.35392 16.8 7.62C16.1947 8.2655 15.5548 8.8655 14.88 9.42C13.9408 8.76128 13.2208 7.92129 12.72 6.9C12.4455 5.44854 12.9855 4.44854 14.34 3.9Z" fill="#D8E070"/>
<path fill-rule="evenodd" clip-rule="evenodd" d="M11.58 4.85999C11.5909 5.17825 11.5108 5.45825 11.34 5.69999C11.3291 5.38172 11.4091 5.10173 11.58 4.85999Z" fill="#3B3E20"/>
<path fill-rule="evenodd" clip-rule="evenodd" d="M8.22001 6.41999C9.37062 6.35126 10.2706 6.79127 10.92 7.73999C11.0901 8.85024 11.1501 9.97024 11.1 11.1C10.0992 11.12 9.09921 11.1 8.10001 11.04C6.78789 10.4356 6.28789 9.4156 6.60001 7.97999C6.96915 7.27063 7.50915 6.75064 8.22001 6.41999Z" fill="#D8E171"/>
<path fill-rule="evenodd" clip-rule="evenodd" d="M20.46 6.42001C22.5648 6.42424 23.5047 7.46423 23.28 9.54001C22.98 10.16 22.52 10.62 21.9 10.92C20.8699 11.0892 19.83 11.1492 18.78 11.1C18.7601 10.0592 18.78 9.01925 18.84 7.98001C19.2091 7.27066 19.7491 6.75066 20.46 6.42001Z" fill="#D8E171"/>
<path fill-rule="evenodd" clip-rule="evenodd" d="M12.42 8.94C12.54 8.98 12.6201 9.06 12.66 9.18C12.58 10.26 12.5001 11.34 12.42 12.42C12.42 11.26 12.42 10.1 12.42 8.94Z" fill="#B5BD5F"/>
<path fill-rule="evenodd" clip-rule="evenodd" d="M17.22 9.06C17.2272 8.99483 17.2672 8.95483 17.34 8.94C17.4598 10.0572 17.4998 11.1772 17.46 12.3C17.46 12.34 17.46 12.38 17.46 12.42C17.38 11.3 17.3 10.18 17.22 9.06Z" fill="#969C4E"/>
<path fill-rule="evenodd" clip-rule="evenodd" d="M17.22 9.06C17.3 10.18 17.38 11.3 17.46 12.42C18.6018 12.3808 19.7218 12.4207 20.82 12.54C20.0626 13.3375 19.3026 14.1376 18.54 14.94C19.2625 15.7426 20.0225 16.5025 20.82 17.22C19.7 17.3 18.58 17.38 17.46 17.46C17.38 18.54 17.3 19.62 17.22 20.7C16.4624 19.9826 15.7025 19.2626 14.94 18.54C14.1775 19.2626 13.4176 19.9826 12.66 20.7C12.58 19.62 12.5 18.54 12.42 17.46C11.3 17.38 10.18 17.3 9.06 17.22C9.85749 16.5025 10.6175 15.7426 11.34 14.94C10.5374 14.0976 9.73741 13.2576 8.94 12.42C10.1 12.42 11.26 12.42 12.42 12.42C12.5 11.34 12.58 10.26 12.66 9.18C13.4176 9.89741 14.1775 10.6174 14.94 11.34C15.7426 10.6175 16.5025 9.85748 17.22 9.06Z" fill="#D9E271"/>
<path fill-rule="evenodd" clip-rule="evenodd" d="M12.42 8.94C12.42 10.1 12.42 11.26 12.42 12.42C11.26 12.42 10.1 12.42 8.94 12.42C10.0382 12.3007 11.1582 12.2608 12.3 12.3C12.2608 11.1582 12.3007 10.0382 12.42 8.94Z" fill="#232513"/>
<path fill-rule="evenodd" clip-rule="evenodd" d="M17.46 12.42C17.46 12.38 17.46 12.34 17.46 12.3C18.6228 12.2602 19.7827 12.3002 20.94 12.42C20.9251 12.4928 20.8852 12.5328 20.82 12.54C19.7218 12.4207 18.6018 12.3808 17.46 12.42Z" fill="#292A15"/>
<path fill-rule="evenodd" clip-rule="evenodd" d="M5.46 12.66C6.26647 12.5701 7.02648 12.7101 7.74 13.08C8.28 13.62 8.82 14.16 9.36 14.7C9.44001 14.82 9.44001 14.94 9.36 15.06C8.69144 15.809 7.95144 16.469 7.14 17.04C4.98318 17.4437 3.92319 16.5437 3.96 14.34C4.27631 13.6043 4.77631 13.0443 5.46 12.66Z" fill="#D8E171"/>
<path fill-rule="evenodd" clip-rule="evenodd" d="M23.22 12.54C25.5304 12.7498 26.3104 13.9498 25.56 16.14C24.7069 17.2105 23.647 17.4704 22.38 16.92C21.642 16.322 20.9621 15.662 20.34 14.94C20.9582 14.2618 21.5982 13.6018 22.26 12.96C22.579 12.7826 22.899 12.6426 23.22 12.54Z" fill="#D7DF70"/>
<path fill-rule="evenodd" clip-rule="evenodd" d="M9.06 17.22C10.18 17.3 11.3 17.38 12.42 17.46C11.2573 17.4998 10.0972 17.4598 8.94 17.34C8.95483 17.2672 8.99483 17.2272 9.06 17.22Z" fill="#7E8342"/>
<path fill-rule="evenodd" clip-rule="evenodd" d="M20.82 17.22C20.8852 17.2272 20.9251 17.2672 20.94 17.34C19.7827 17.4598 18.6228 17.4998 17.46 17.46C18.58 17.38 19.7 17.3 20.82 17.22Z" fill="#7C8141"/>
<path fill-rule="evenodd" clip-rule="evenodd" d="M12.42 17.46C12.5 18.54 12.5799 19.62 12.66 20.7C12.6528 20.7652 12.6128 20.8051 12.54 20.82C12.4202 19.7028 12.3801 18.5828 12.42 17.46Z" fill="#B4BC5E"/>
<path fill-rule="evenodd" clip-rule="evenodd" d="M17.46 17.46C17.4799 18.6206 17.46 19.7807 17.4 20.94C17.314 20.8747 17.254 20.7947 17.22 20.7C17.3 19.62 17.38 18.54 17.46 17.46Z" fill="#959B4E"/>
<path fill-rule="evenodd" clip-rule="evenodd" d="M8.33999 18.66C9.26 18.66 10.18 18.66 11.1 18.66C11.12 19.6608 11.1 20.6608 11.04 21.66C10.4872 22.9666 9.50717 23.5066 8.09999 23.28C7.02661 22.8742 6.5066 22.0942 6.53999 20.94C6.64723 19.7926 7.24723 19.0326 8.33999 18.66Z" fill="#D7E070"/>
<path fill-rule="evenodd" clip-rule="evenodd" d="M21.42 18.78C22.2962 18.9149 22.9163 19.3949 23.28 20.22C23.5954 21.7567 23.0154 22.7767 21.54 23.28C20.6683 23.4937 19.9283 23.2738 19.32 22.62C19.011 22.2329 18.831 21.7928 18.78 21.3C18.78 20.46 18.78 19.62 18.78 18.78C19.66 18.78 20.54 18.78 21.42 18.78Z" fill="#D9E271"/>
<path fill-rule="evenodd" clip-rule="evenodd" d="M21.42 18.78C20.5401 18.78 19.66 18.78 18.78 18.78C18.78 19.62 18.78 20.46 18.78 21.3C18.661 20.4423 18.621 19.5623 18.66 18.66C19.6023 18.621 20.5222 18.661 21.42 18.78Z" fill="#6A6F37"/>
<path fill-rule="evenodd" clip-rule="evenodd" d="M14.82 20.34C15.783 21.0032 16.563 21.8432 17.16 22.86C17.2985 25.2415 16.1984 26.1815 13.86 25.68C12.6365 24.7916 12.3365 23.6516 12.96 22.26C13.6044 21.6358 14.2243 20.9958 14.82 20.34Z" fill="#D7E070"/>
</g>
<defs>
<clipPath id="clip0_235_9">
<rect width="30" height="30" fill="white"/>
</clipPath>
</defs>
</svg>
