<?xml version="1.0" encoding="UTF-8"?>
<svg xmlns="http://www.w3.org/2000/svg" xmlns:xlink="http://www.w3.org/1999/xlink" width="30px" height="30px" viewBox="0 0 30 29" version="1.1">
<g id="surface1">
<path style=" stroke:none;fill-rule:nonzero;fill:rgb(100%,0%,0%);fill-opacity:1;" d="M 30 14.5 C 30 6.492188 23.285156 0 15 0 C 6.714844 0 0 6.492188 0 14.5 C 0 22.507812 6.714844 29 15 29 C 23.285156 29 30 22.507812 30 14.5 Z M 30 14.5 "/>
<path style=" stroke:none;fill-rule:evenodd;fill:rgb(100%,100%,100%);fill-opacity:1;" d="M 15.097656 1.453125 L 21.53125 10.96875 L 15.097656 14.511719 L 8.664062 10.96875 Z M 10.632812 10.519531 L 15.097656 3.914062 L 19.5625 10.519531 L 15.097656 12.972656 Z M 10.632812 10.519531 "/>
<path style=" stroke:none;fill-rule:evenodd;fill:rgb(100%,100%,100%);fill-opacity:1;" d="M 7.457031 12.34375 L 15.03125 16.476562 L 22.605469 12.34375 L 22.808594 12.644531 C 24.609375 15.28125 24.714844 18.546875 23.261719 21.21875 C 21.792969 22.269531 19.484375 22.484375 15.371094 19.699219 C 11.398438 17.011719 8.289062 17.011719 5.828125 17.949219 C 5.679688 16.132812 6.144531 14.269531 7.25 12.644531 Z M 7.457031 12.34375 "/>
<path style=" stroke:none;fill-rule:evenodd;fill:rgb(100%,100%,100%);fill-opacity:1;" d="M 23.160156 22.28125 C 21.699219 23.394531 19.554688 23.9375 15.347656 21.09375 C 11.371094 18.402344 8.347656 18.148438 5.886719 19.085938 C 6.019531 21.132812 6.929688 22.867188 8.566406 24.402344 C 12.171875 27.78125 18.015625 27.78125 21.625 24.402344 C 22.382812 23.695312 22.71875 23.144531 23.160156 22.28125 Z M 23.160156 22.28125 "/>
</g>
</svg>
