<svg width="81px" height="18px" viewBox="0 0 81 18" version="1.1" xmlns="http://www.w3.org/2000/svg" xmlns:xlink="http://www.w3.org/1999/xlink">
<title>tether-logo.72dc87e5</title>
<g id="Page-1" stroke="none" stroke-width="1" fill="none" fill-rule="evenodd">
<g id="tether-logo.72dc87e5" transform="translate(0.000000, -0.000000)" fill="#009393">
<path d="M4.64469711,9.85495904e-16 L16.9286717,9.85495904e-16 C17.22182,9.85495904e-16 17.492555,0.154697324 17.6387408,0.405667576 L21.2175471,6.55022073 C21.4031781,6.86888916 21.3480325,7.27105272 21.0832891,7.52947151 L11.2324734,17.144892 C10.9134167,17.4563482 10.4000742,17.4563482 10.0809065,17.144892 L0.243433367,7.54245348 C-0.027442012,7.27804301 -0.0781643286,6.86411801 0.121025632,6.54350783 L3.94651699,0.38595607 C4.09549892,0.146147534 4.35988165,9.85495904e-16 4.64469711,9.85495904e-16 Z M15.3425972,2.74332576 L15.3425972,4.46739188 L11.8434025,4.46739188 L11.8434025,5.66273137 C14.3010441,5.79049832 16.1448716,6.3151029 16.1585748,6.94395155 L16.1584638,8.25490821 C16.1447606,8.88375686 14.3010441,9.40841692 11.8434025,9.53618388 L11.8434025,12.4696644 L9.51985254,12.4696644 L9.51985254,9.53618388 C7.06226651,9.40841692 5.2183835,8.88375686 5.20473579,8.25490821 L5.20473579,6.94395155 C5.21849446,6.3151029 7.06226651,5.79049832 9.51985254,5.66273137 L9.51985254,4.46739188 L6.02065791,4.46739188 L6.02065791,2.74332576 L15.3425972,2.74332576 Z M10.6816275,8.63549063 C13.304373,8.63549063 15.49655,8.19188465 16.033027,7.59942988 C15.5780479,7.0970167 13.9325005,6.701677 11.8434025,6.5931056 L11.8434025,7.8446448 C11.4689228,7.86411775 11.080296,7.87432579 10.6816275,7.87432579 C10.2830146,7.87432579 9.89433233,7.86411775 9.51985254,7.8446448 L9.51985254,6.5931056 C7.43075462,6.701677 5.78526269,7.0970167 5.33028361,7.59942988 C5.86681606,8.19188465 8.05899301,8.63549063 10.6816275,8.63549063 Z" id="Shape"></path>
<path d="M26.0129411,3.33435473 L28.852552,3.01884303 L28.852552,5.74012386 L31.3174612,5.74012386 L31.3174612,8.10644778 L28.8328016,8.10644778 L28.8328016,11.7742415 C28.8328016,12.6419251 29.2009014,13.0757668 29.9371009,13.0757668 C30.4103324,13.0757668 30.804729,12.9968764 31.1202352,12.8390956 L31.7709978,15.2054195 C31.1268371,15.4551837 30.4432312,15.5998716 29.72018,15.6392613 C28.5764356,15.6918549 27.6693623,15.4223404 26.9989048,14.8307733 C26.3415956,14.2260023 26.0129411,13.2071954 26.0129411,11.7742415 L26.0129411,8.10644778 L24.2776295,8.10644778 L24.2776295,5.74012386 L26.0129411,5.74012386 L26.0129411,3.33435473 Z" id="Path" fill-rule="nonzero"></path>
<path d="M41.9451421,11.4785412 L34.7870303,11.4785412 C34.8658652,11.978014 35.1353797,12.3921609 35.5955183,12.72076 C36.0556014,13.0363216 36.6669188,13.194047 37.4294152,13.194047 C38.5205661,13.194047 39.3618418,12.9376809 39.9534644,12.4250042 L41.5507456,14.199761 C40.5779303,15.1594834 39.1843662,15.6392613 37.3702196,15.6392613 C35.6349635,15.6392613 34.287391,15.1726318 33.3277796,14.2392062 C32.3812057,13.3058361 31.9079742,12.0438115 31.9079742,10.4530214 C31.9079742,8.95443646 32.3746038,7.74494995 33.3080293,6.82472829 C34.2413994,5.89130274 35.4968775,5.4246177 37.0744638,5.4246177 C38.7965715,5.4246177 40.1112453,5.95049828 41.018263,7.00214849 C41.9385402,8.05385417 42.2474999,9.54600357 41.9451421,11.4785412 Z M34.7870303,9.40797309 L39.401287,9.40797309 C39.3749902,8.90838931 39.13843,8.52714115 38.6914398,8.2642286 C38.2444496,7.98811217 37.7054761,7.85013717 37.0744638,7.85013717 C36.509138,7.85013717 36.0227581,7.98811217 35.6152132,8.2642286 C35.2076682,8.54028955 34.9316072,8.92153771 34.7870303,9.40797309 Z" id="Shape" fill-rule="nonzero"></path>
<path d="M44.3124647,3.33435473 L47.152131,3.01884303 L47.152131,5.74012386 L49.6170402,5.74012386 L49.6170402,8.10644778 L47.1323807,8.10644778 L47.1323807,11.7742415 C47.1323807,12.6419251 47.5004805,13.0757668 48.2366245,13.0757668 C48.7099115,13.0757668 49.1043081,12.9968764 49.4198697,12.8390956 L50.0705769,15.2054195 C49.4264161,15.4551837 48.7428102,15.5998716 48.0197591,15.6392613 C46.8760146,15.6918549 45.9688859,15.4223404 45.2984838,14.8307733 C44.6411747,14.2260023 44.3124647,13.2071954 44.3124647,11.7742415 L44.3124647,8.10644778 L42.5772085,8.10644778 L42.5772085,5.74012386 L44.3124647,5.74012386 L44.3124647,3.33435473 Z" id="Path" fill-rule="nonzero"></path>
<path d="M51.13532,1.61877682 L53.9946258,1.61877682 L53.9946258,6.88386835 C54.6913801,5.97673961 55.6773992,5.52320297 56.9522949,5.52320297 C59.5425854,5.52320297 60.8374533,7.0810389 60.8374533,10.1967107 L60.8374533,15.4223404 L57.9975096,15.4223404 L57.9975096,10.2164611 C57.9975096,9.54600357 57.8266358,9.02666945 57.4848884,8.65856968 C57.1564557,8.2905254 56.7092991,8.10644778 56.1439733,8.10644778 C55.525943,8.10644778 55.0066643,8.3168222 54.5861929,8.73751557 C54.1786479,9.15815346 53.9748754,9.74317411 53.9748754,10.4924666 L53.9748754,15.4223404 L51.13532,15.4223404 L51.13532,1.61877682 Z" id="Path" fill-rule="nonzero"></path>
<path d="M71.9736501,11.4785412 L64.8158157,11.4785412 C64.8945951,11.978014 65.1642206,12.3921609 65.6241372,12.72076 C66.0840539,13.0363216 66.6959816,13.194047 67.458256,13.194047 C68.5495179,13.194047 69.3911265,12.9376809 69.9819724,12.4250042 L71.5797528,14.199761 C70.6066602,15.1594834 69.2135954,15.6392613 67.3994488,15.6392613 C65.663527,15.6392613 64.3165093,15.1726318 63.3567315,14.2392062 C62.4102685,13.3058361 61.937037,12.0438115 61.937037,10.4530214 C61.937037,8.95443646 62.403611,7.74494995 63.3367592,6.82472829 C64.2704621,5.89130274 65.5253855,5.4246177 67.1031937,5.4246177 C68.825246,5.4246177 70.1400861,5.95049828 71.0471594,7.00214849 C71.9669927,8.05385417 72.2760079,9.54600357 71.9736501,11.4785412 Z M64.8158157,9.40797309 L69.4305162,9.40797309 C69.4038866,8.90838931 69.1675482,8.52714115 68.7203916,8.2642286 C68.273235,7.98811217 67.7339841,7.85013717 67.1031937,7.85013717 C66.5378679,7.85013717 66.0513216,7.98811217 65.6435547,8.2642286 C65.2363426,8.54028955 64.9606145,8.92153771 64.8158157,9.40797309 Z" id="Shape" fill-rule="nonzero"></path>
<path d="M73.1514584,5.70067865 L75.7938987,5.70067865 L76.0108196,6.76553274 C76.62885,5.89790468 77.4965335,5.4640629 78.6138703,5.4640629 C79.5337036,5.4640629 80.3292651,5.7598742 81,6.35144131 L79.8166439,8.59942962 C79.3561724,8.27077506 78.8374486,8.10650326 78.2588079,8.10650326 C77.6147027,8.10650326 77.0760066,8.31027574 76.6421648,8.71776523 C76.208323,9.1121618 75.9914022,9.65773724 75.9914022,10.3544916 L75.9914022,15.4223404 L73.1514584,15.4223404 L73.1514584,5.70067865 Z" id="Path" fill-rule="nonzero"></path>
</g>
</g>
</svg>