<svg width="30" height="30" viewBox="0 0 30 30" fill="none" xmlns="http://www.w3.org/2000/svg">
<g clip-path="url(#clip0_275_2)">
<path d="M15.0069 0.567505H15.0075C22.9823 0.567505 29.4471 7.03235 29.4471 15.0072V15.0077C29.4471 22.9825 22.9823 29.4474 15.0075 29.4474H15.0069C7.03211 29.4474 0.567261 22.9825 0.567261 15.0077V15.0072C0.567261 7.03235 7.03211 0.567505 15.0069 0.567505Z" fill="#111111" stroke="#111111" stroke-width="0.5"/>
<path d="M15.0075 0.301514H15.0069C6.8852 0.301514 0.30127 6.88544 0.30127 15.0072V15.0077C0.30127 23.1294 6.8852 29.7133 15.0069 29.7133H15.0075C23.1291 29.7133 29.713 23.1294 29.713 15.0077V15.0072C29.713 6.88544 23.1291 0.301514 15.0075 0.301514Z" fill="url(#paint0_radial_275_2)" fill-opacity="0.7"/>
<path d="M15.0075 0.301514H15.0069C6.8852 0.301514 0.30127 6.88544 0.30127 15.0072V15.0077C0.30127 23.1294 6.8852 29.7133 15.0069 29.7133H15.0075C23.1291 29.7133 29.713 23.1294 29.713 15.0077V15.0072C29.713 6.88544 23.1291 0.301514 15.0075 0.301514Z" stroke="url(#paint1_linear_275_2)" stroke-width="0.5"/>
<path fill-rule="evenodd" clip-rule="evenodd" d="M10.7227 3.44739C6.0301 5.18465 2.6853 9.70008 2.6853 14.9968C2.6853 20.2935 6.0301 24.8089 10.7227 26.5462V25.3317C6.66827 23.653 3.81596 19.658 3.81596 14.9968C3.81596 10.3356 6.66827 6.34055 10.7227 4.6619V3.44739ZM19.2714 4.66206V3.44752C23.9639 5.18489 27.3085 9.70023 27.3085 14.9968C27.3085 20.2933 23.9639 24.8087 19.2714 26.5461V25.3315C23.3256 23.6528 26.1778 19.6579 26.1778 14.9968C26.1778 10.3357 23.3256 6.3408 19.2714 4.66206Z" fill="white"/>
<path fill-rule="evenodd" clip-rule="evenodd" d="M14.9976 4.66095L15.6424 5.7689L19.5894 12.5503H22.0854V13.6809H7.91455V12.5503H10.4047L14.3526 5.76884L14.9976 4.66095ZM14.9974 7.62763L17.8626 12.5503H12.1317L14.9974 7.62763ZM19.5965 17.3744H22.0854V16.2437H7.91455V17.3744H10.3977L14.3526 24.1679L14.9976 25.2758L15.6424 24.1678L19.5965 17.3744ZM17.8697 17.3744H12.1247L14.9974 22.3091L17.8697 17.3744Z" fill="white"/>
</g>
<defs>
<radialGradient id="paint0_radial_275_2" cx="0" cy="0" r="1" gradientUnits="userSpaceOnUse" gradientTransform="translate(15.0387 4.59601) rotate(90) scale(31.0064 21.8254)">
<stop offset="0.03125" stop-color="#3A3A3A"/>
<stop offset="1" stop-color="#1C1C1C"/>
</radialGradient>
<linearGradient id="paint1_linear_275_2" x1="15.0072" y1="0.0240413" x2="15.0072" y2="29.9908" gradientUnits="userSpaceOnUse">
<stop stop-color="white"/>
<stop offset="1" stop-color="#111111"/>
</linearGradient>
<clipPath id="clip0_275_2">
<rect width="30" height="30" fill="white"/>
</clipPath>
</defs>
</svg>
