<svg width="81px" height="25px" viewBox="0 0 81 25" version="1.1" xmlns="http://www.w3.org/2000/svg" xmlns:xlink="http://www.w3.org/1999/xlink">
<title>wbtc-text-logo.01b22a82</title>
<g id="Page-1" stroke="none" stroke-width="1" fill="none" fill-rule="evenodd">
<g id="wbtc-text-logo.01b22a82" fill-rule="nonzero">
<polygon id="Path" fill="#282138" points="41.9790802 18.2791453 39.0509519 18.2791453 36.6252834 9.98104901 36.5733048 9.98104901 34.1476364 18.2791453 31.2021818 18.2791453 27.719615 6.01103832 30.9076364 6.01103832 32.8481711 14.17168 32.9001497 14.17168 35.0832513 6.01103832 38.1673155 6.01103832 40.3677433 14.17168 40.4197219 14.17168 42.3949091 6.01103832 45.4789733 6.01103832"></polygon>
<path d="M57.1048556,14.7087923 C57.1048556,15.3802405 56.9720214,15.9435731 56.7063529,16.3986747 C56.4491166,16.8460372 56.0861904,17.2235175 55.6494546,17.498311 C55.1883465,17.785233 54.6798802,17.987834 54.1478503,18.0966426 C53.582323,18.2185036 53.0053604,18.2797228 52.4267808,18.2791493 L47.5407915,18.2791493 L47.5407915,6.01103832 L52.4267808,6.01103832 C52.9156107,6.01277094 53.4030546,6.06228922 53.8821818,6.15888858 C54.3577283,6.24916965 54.8145626,6.4190473 55.2336257,6.66134848 C55.6360556,6.89667297 55.9750717,7.22654078 56.2212193,7.62237521 C56.4753369,8.02780837 56.6023957,8.54643938 56.6023957,9.1644073 C56.6023957,9.84667853 56.4175829,10.4099765 56.0479572,10.8542897 C55.6653947,11.3080398 55.1600471,11.6417078 54.5925562,11.8153164 L54.5925562,11.8499688 C54.9334203,11.9067987 55.2636578,12.0150298 55.5720642,12.1710811 C56.0420663,12.4059089 56.4357177,12.7694126 56.7071615,13.2193164 C56.9784898,13.6692201 57.1164064,14.1869271 57.1048556,14.7122576 L57.1048556,14.7087923 Z M53.7401101,9.56290997 C53.7401101,9.1470811 53.5815144,8.8440689 53.2642139,8.65386184 C52.9469134,8.46366634 52.4761027,8.36817585 51.8515508,8.36740195 L50.3961497,8.36740195 L50.3961497,10.8970276 L51.9901604,10.8970276 C52.5445989,10.8970276 52.9750973,10.7846037 53.2815401,10.5597442 C53.5879829,10.3348963 53.7409155,10.0026144 53.7401101,9.56290997 Z M54.1386096,14.4315731 C54.1386096,13.9248394 53.9460578,13.5725399 53.5610695,13.3746747 C53.1798931,13.1794661 52.6716578,13.0801292 52.0363636,13.0801292 L50.399615,13.0801292 L50.399615,15.8869741 L52.0629305,15.8869741 C52.3039957,15.8862811 52.5447144,15.8661827 52.7825455,15.82691 C53.0176043,15.7901784 53.2455016,15.7172929 53.4582674,15.61091 C53.6577497,15.5079923 53.8275465,15.3556372 53.9514866,15.1685142 C54.0869775,14.9473164 54.1532792,14.6907731 54.1420749,14.4315731 L54.1386096,14.4315731 Z" id="Shape" fill="#282138"></path>
<polygon id="Path" fill="#282138" points="65.1095615 8.54066398 65.1095615 18.2791453 62.1467808 18.2791453 62.1467808 8.54066398 58.6815401 8.54066398 58.6815401 6.01103832 68.5748021 6.01103832 68.5748021 8.54066398"></polygon>
<path d="M78.9878503,18.0619902 C78.1195765,18.4401634 77.1798032,18.6261314 76.232984,18.607188 C75.3362952,18.6163132 74.4458439,18.4577207 73.6074866,18.1393806 C72.8272299,17.8456437 72.1159316,17.3938918 71.5182931,16.8125399 C70.9206545,16.231188 70.4493818,15.532711 70.1341604,14.7607709 C69.7915636,13.9255324 69.6207273,13.0298832 69.6317005,12.127188 C69.6185326,11.2126764 69.7922567,10.3050952 70.142246,9.46010783 C70.4641668,8.6885258 70.9454888,7.99374505 71.5549091,7.42139126 C72.1666396,6.85472045 72.8853305,6.41570912 73.6687059,6.13001158 C74.5069476,5.8250935 75.3930096,5.67253051 76.2849626,5.67953029 C77.1572791,5.68159789 78.0222032,5.83801885 78.84,6.14156238 C79.6211807,6.40999147 80.3217369,6.87172324 80.8764064,7.48376559 L78.8665668,9.49360516 C78.5895786,9.11376858 78.2114053,8.8195581 77.775016,8.6446212 C77.335508,8.46258056 76.8645818,8.36839532 76.3889198,8.36740195 C75.8974332,8.36183446 75.4103358,8.45941564 74.9589305,8.65386184 C74.5366332,8.83730013 74.1564963,9.10541735 73.8419679,9.44162655 C73.5245519,9.78639489 73.2773647,10.1897258 73.1142674,10.629049 C72.936616,11.1094931 72.8484834,11.6184907 72.8543743,12.1306533 C72.8482524,12.6504394 72.936385,13.1669913 73.1142674,13.6553592 C73.2751701,14.0939431 73.5213176,14.4963731 73.8385027,14.8393164 C74.1474866,15.1705934 74.5225412,15.4334896 74.9392941,15.61091 C75.3830759,15.7986105 75.8609326,15.892634 76.3427166,15.8869741 C76.8774032,15.9000265 77.407123,15.7810533 77.8847487,15.5404501 C78.3033497,15.3279153 78.6655829,15.0191624 78.9416471,14.6394875 L81,16.5800223 C80.4440599,17.2133528 79.7575957,17.7189314 78.9878503,18.0619902 Z" id="Path" fill="#282138"></path>
<path d="M14.0965989,10.3783966 C14.0965989,11.7113592 12.0174546,11.5496479 11.3579038,11.5496479 L11.3579038,9.20136987 C12.0186096,9.20136987 14.0965989,8.99230035 14.0965989,10.3783966 Z M14.6394866,14.0238298 C14.6394866,15.4803859 12.1491337,15.3140544 11.3555936,15.3140544 L11.3555936,12.7347602 C12.1491337,12.7347602 14.6394866,12.5037442 14.6394866,14.0296052 M16.2797006,9.85861051 C16.1468663,8.46096345 14.9502032,7.99893136 13.4358931,7.85339126 L13.4358931,5.93711318 L12.2727273,5.93711318 L12.2727273,7.81527361 C11.9643209,7.81527361 11.6501391,7.81527361 11.3371123,7.82682441 L11.3371123,5.93711318 L10.1681711,5.93711318 L10.1681711,7.86494206 L7.79679146,7.86494206 L7.79679146,9.11935917 C7.79679146,9.11935917 8.66079146,9.10434313 8.64808558,9.11935917 C8.80402141,9.10219468 8.96051168,9.14635339 9.08446333,9.24249072 C9.20841499,9.3386396 9.29011382,9.47923596 9.3122567,9.63452495 L9.3122567,14.9143966 C9.30902248,14.9686854 9.29509221,15.0219346 9.27126291,15.0707945 C9.2474336,15.1197699 9.21416729,15.1635474 9.17339296,15.1995859 C9.13260708,15.2356244 9.08511018,15.2633463 9.0336167,15.2810191 C8.98212323,15.2985763 8.9276612,15.3059688 8.87332622,15.3025036 C8.88834226,15.3163645 8.0220321,15.3025036 8.0220321,15.3025036 L7.79101606,16.7036159 L10.1531551,16.7036159 L10.1531551,18.6672522 L11.3232514,18.6672522 L11.3232514,16.7324929 L12.2577112,16.7324929 L12.2577112,18.6545463 L13.4278075,18.6545463 L13.4278075,16.7174768 C15.4041497,16.6019688 16.7775401,16.1087495 16.9554225,14.2548458 C17.0951872,12.7613271 16.3952086,12.0960009 15.2759358,11.8291774 C15.9562781,11.4826533 16.3836578,10.8716159 16.2820107,9.85514527" id="Shape" fill="#F09242"></path>
<path d="M5.69685563,5.00149821 C6.88288045,3.92860195 8.32269948,3.17555896 9.88045221,2.81340666 C11.4382049,2.45124281 13.0625711,2.49192473 14.6002139,2.93159447 L14.7342032,2.96971211 C14.8011979,2.98934848 14.8670375,3.01013992 14.932877,3.03208644 C15.0275936,3.06211853 15.1223102,3.09446078 15.2147166,3.1279581 L15.307123,3.16145543 C15.4330268,3.20765864 15.5589305,3.25732709 15.6825241,3.3093057 L15.6975401,3.31623618 C16.6828235,3.73982719 17.5983401,4.30995168 18.4131337,5.00727361 L18.9282995,4.45052495 C18.8589947,4.38122013 18.7873797,4.31769072 18.7169198,4.25185115 C16.9332449,2.70674655 14.6697497,1.82679489 12.3108449,1.76149821 C12.1849412,1.76149821 12.0590375,1.76149821 11.9331337,1.76149821 L11.9065669,1.76149821 C11.1414648,1.7720903 10.3797356,1.8650396 9.63452408,2.03871746 L9.48205349,2.07568003 L9.35499467,2.10917735 C8.61245136,2.30826698 7.89481157,2.5907534 7.21578612,2.95123083 C6.47226098,3.350415 5.79537243,3.86285479 5.20941178,4.47016131 L5.69685563,5.00149821 Z" id="Path" fill="#5A5564"></path>
<path d="M5.04423531,5.64949821 L4.47824601,5.1539688 C0.638763999,9.17826826 1.1978182,15.726418 4.47824601,18.8474447 L5.05578612,18.3958084 C3.45904943,16.6581057 2.57209799,14.3846768 2.57018056,12.0247324 C2.56825157,9.66471874 3.45148366,7.38985757 5.04539039,5.64949821 L5.04423531,5.64949821 Z" id="Path" fill="#5A5564"></path>
<path d="M19.8558289,5.4046212 C19.7668877,5.31221479 19.6767915,5.22096345 19.58323,5.13433243 L19.0877006,5.67722013 C21.9985027,8.98421479 22.6130054,14.2340544 19.1789519,18.27568 L19.6617754,18.8589955 C21.3115765,17.0172201 22.240261,14.6413356 22.2767615,12.169002 C22.313262,9.69658741 21.455153,7.29429778 19.8604492,5.4046212 L19.8558289,5.4046212 Z" id="Path" fill="#5A5564"></path>
<path d="M18.4500963,19.0484287 C18.115123,19.2990811 17.7824599,19.5289421 17.4486417,19.7414768 C16.2371936,20.5976223 14.8404706,21.1549485 13.3723637,21.3678298 C12.621215,21.4876116 11.8573604,21.5055153 11.101476,21.4209634 C9.19756879,21.2362661 7.39521628,20.4755303 5.93480216,19.240172 C5.85856686,19.1847282 5.78348665,19.1304394 5.70378612,19.0726854 L5.17129414,19.5497335 C7.03443852,21.3897763 9.58832087,22.2745677 12.1017754,22.2734138 C12.1572193,22.2734138 12.2172834,22.2734138 12.268107,22.2734138 L12.2946738,22.2734138 C14.6326717,22.2124244 16.8789562,21.3508501 18.6580107,19.8327282 C18.7388663,19.7564929 18.820877,19.6814126 18.8982674,19.6017121 L18.4500963,19.0484287 Z" id="Path" fill="#5A5564"></path>
<path d="M12.0417112,0.808557239 C14.2647786,0.80764452 16.438062,1.46606334 18.2868834,2.70054377 C20.1355893,3.93501265 21.5766674,5.69006463 22.427846,7.74369329 C23.2789091,9.7973104 23.5018396,12.0571902 23.0684535,14.2376351 C22.6349519,16.4179645 21.5645391,18.4207581 19.9925904,19.9925913 C18.4207572,21.5645399 16.4179637,22.6349527 14.2376342,23.0684544 C12.0571893,23.5018404 9.79730954,23.27891 7.74369243,22.4278469 C5.69006376,21.5766683 3.93501178,20.1355902 2.70054291,18.2867688 C1.46607403,16.4380629 0.807647122,14.2647795 0.808559841,12.0417121 C0.813142994,9.06390377 1.99810398,6.20936559 4.10373435,4.10373521 C6.20936473,1.99810484 9.06390291,0.813140392 12.0417112,0.808557239 Z M12.0417112,8.83889644e-07 C9.65917349,0.000915758244 7.33041628,0.708314552 5.34991574,2.0327457 C3.36941521,3.35717222 1.82612408,5.23914441 0.915210502,7.44066955 C0.00429636493,9.64219468 -0.233331958,12.0643517 0.232374438,14.4009634 C0.698080834,16.7375752 1.84621093,18.8835987 3.53156537,20.5675902 C5.21691981,22.2516971 7.36380964,23.3982298 9.70074483,23.86211 C12.0376685,24.3259902 14.4597562,24.0865421 16.6605305,23.1739132 C18.8614203,22.2612843 20.7421219,20.7165955 22.0650353,18.7350554 C23.3879487,16.7535153 24.0935872,14.4242961 24.092664,12.0417121 C24.0920856,10.4597605 23.7798674,8.89342548 23.1739123,7.4321335 C22.5679572,5.97084152 21.6801626,4.64320388 20.5611209,3.52502848 C19.4420792,2.40684152 18.1137369,1.52002869 16.6519829,0.91520559 C15.1902289,0.310381333 13.6237091,-0.000605095445 12.0417112,8.83889644e-07 Z" id="Shape" fill="#282138"></path>
</g>
</g>
</svg>