<svg width="74" height="20" viewBox="0 0 74 20" fill="none" xmlns="http://www.w3.org/2000/svg">
<path d="M25.6976 14.4809L32.7936 4.99668H25.7923V3.13667H35.4426V4.81058L28.3466 14.2953H35.5373V16.1548H25.6976V14.4809Z" fill="#2F3E2C"/>
<path d="M36.4832 3.13667H38.5647V5.08925H36.4832V3.13667ZM36.5778 6.85619H38.47V16.1548H36.5778V6.85619Z" fill="#2F3E2C"/>
<path d="M39.6055 6.85625H41.214L41.4033 7.69325H41.498C41.8198 7.33988 42.1225 6.85625 43.2959 6.85625H44.9992V8.53019H43.4853C42.1608 8.53019 41.4985 9.18106 41.4985 10.4644V16.1554H39.6064V6.85675L39.6055 6.85625Z" fill="#2F3E2C"/>
<path d="M53.9861 12.8999C53.6834 14.2948 52.4722 16.3404 49.6338 16.3404C46.7954 16.3404 44.9033 14.3878 44.9033 11.5052C44.9033 8.62263 46.8901 6.67007 49.6338 6.67007C52.3775 6.67007 53.6834 8.73444 53.9861 10.0174H52.0939C51.7913 9.18044 51.0721 8.34344 49.6343 8.34344C48.0258 8.34344 46.7959 9.57094 46.7959 11.5047C46.7959 13.4385 48.0258 14.6664 49.6343 14.6664C51.1481 14.6664 51.8859 13.6434 52.0939 12.8999H53.9861Z" fill="#2F3E2C"/>
<path d="M54.9321 6.85625H56.8243V12.4354C56.8243 13.644 57.7891 14.6671 59.095 14.6671C60.5142 14.6671 61.5552 13.644 61.5552 12.4354V6.85625H63.4475V16.1549H61.7441L61.5547 15.2249H61.46C61.252 15.4293 61.0249 15.6154 60.76 15.7827C60.3058 16.0618 59.6057 16.3405 58.7163 16.3405C56.4455 16.3405 54.9316 14.8715 54.9316 12.4354L54.9321 6.85625Z" fill="#2F3E2C"/>
<path d="M64.6763 3.13667H66.7581V5.08925H64.6763V3.13667ZM64.7713 6.85619H66.6631V16.1548H64.7713V6.85619Z" fill="#2F3E2C"/>
<path d="M69.1231 8.62306H67.6094V6.85662H69.1231V4.25317H71.0156V6.85662H73.1919V8.62306H71.0156V13.923C71.0156 14.2947 71.205 14.4808 71.5831 14.4808H73.1919V16.1547H71.205C69.8612 16.1547 69.1231 15.4108 69.1231 14.2022V8.62306Z" fill="#2F3E2C"/>
<path fill-rule="evenodd" clip-rule="evenodd" d="M0 10.0005C0 4.47726 4.46411 0 9.97019 0C15.4772 0 19.9413 4.47726 19.9408 10C19.9408 11.9563 19.3806 13.7811 18.4127 15.3221C18.1458 15.7466 17.8486 16.1496 17.5228 16.5284L9.98337 8.96681L3.50015 15.4687L2.42975 16.5422C2.10303 16.1644 1.80477 15.7619 1.53791 15.3378C0.563654 13.7939 0 11.9631 0 10.0005ZM17.2697 13.8972L17.3609 13.7142L17.3614 13.7147C17.9334 12.5703 18.2356 11.2856 18.2356 10.0005C18.2356 5.42978 14.5279 1.7112 9.97062 1.7112C5.41334 1.7112 1.70617 5.42978 1.70617 10.0005C1.70617 11.2925 2.0113 12.5826 2.58869 13.7314L2.68042 13.9134L9.98337 6.58894L17.2697 13.8972ZM9.97056 20C12.4528 20 14.7236 19.0903 16.469 17.5847L9.98381 11.0799L3.48632 17.5961C5.22929 19.0952 7.48831 20 9.97056 20Z" fill="url(#paint0_linear_737_11)"/>
<defs>
<linearGradient id="paint0_linear_737_11" x1="9.97037" y1="-9.3691e-10" x2="10" y2="20" gradientUnits="userSpaceOnUse">
<stop stop-color="#169E00"/>
<stop offset="0.49" stop-color="#00C537"/>
<stop offset="1" stop-color="#00B1C9"/>
</linearGradient>
</defs>
</svg>
