<svg width="124" height="27" viewBox="0 0 124 27" fill="none" xmlns="http://www.w3.org/2000/svg">
<path d="M12.4143 25C10.1656 25 7.917 25 5.66837 25C5.29919 25 4.97476 24.9105 4.71746 24.6756C4.3259 24.3288 4.28116 23.8813 4.39303 23.4226C4.54965 22.8409 4.82933 22.3039 5.06426 21.7333C5.73549 20.1336 6.40673 18.5562 7.13389 16.9788C7.15627 16.9564 7.15627 16.934 7.15627 16.9116C7.41357 16.3299 7.32408 16.0726 6.71997 15.8489C5.88093 15.5244 5.05307 15.1105 4.30353 14.6183C1.86472 12.9737 0.455128 10.658 0.097137 7.71575C-0.11542 6.04886 0.0300137 4.40434 0.443941 2.79338C0.701246 1.70822 1.48435 1.10411 2.5807 1.08174C4.09097 1.03699 5.57887 1.05936 7.07796 1.05936C9.60627 1.05936 12.1346 1.03699 14.6629 1.01461C15.2222 1.01461 15.7704 0.969864 16.3298 1.03699C17.2807 1.14886 17.7506 1.82009 17.4485 2.72626C17.1912 3.52055 16.7996 4.28128 16.4752 5.06438C15.9159 6.38447 15.3117 7.72694 14.7412 9.03584C14.7188 9.10297 14.6741 9.19247 14.6517 9.2484C14.5175 9.66233 14.607 9.89726 15.0209 10.0874C15.5802 10.3224 16.162 10.5461 16.7101 10.8705C19.7531 12.6158 21.4871 15.2336 21.8786 18.7128C22.0464 20.3797 21.7891 21.9794 21.3193 23.5568C21.0396 24.463 20.2341 24.9776 19.1825 24.9776C16.9339 24.9776 14.6629 24.9776 12.4143 24.9776V25ZM9.16997 2.3347C7.20102 2.40183 5.23207 2.37945 3.25193 2.3347C2.25627 2.31233 1.83116 2.68151 1.62979 3.67717C1.47316 4.41553 1.41723 5.16507 1.41723 5.9258C1.41723 7.99543 1.93184 9.91963 3.22956 11.5865C4.48252 13.2087 6.17179 14.2043 8.07362 14.8532C8.33093 14.9427 8.63298 15.0098 8.86791 15.1329C9.12522 15.2671 9.19234 15.4349 9.10284 15.7146C9.03572 15.8824 8.9686 16.0614 8.89029 16.2292C7.917 18.3884 6.96609 20.5699 6.03755 22.729C5.94805 22.9192 5.86974 23.1205 5.84737 23.3107C5.82499 23.4785 5.89211 23.5904 6.05992 23.6352C6.2501 23.6799 6.4291 23.6799 6.61928 23.6799C8.71129 23.6575 10.8145 23.7023 12.9065 23.6575C14.249 23.6128 15.6026 23.6575 16.9451 23.6575C17.7058 23.6575 18.4554 23.7023 19.1937 23.6352C19.6636 23.5904 19.9321 23.3779 20.0328 22.9192C20.4019 21.3194 20.525 19.6973 20.2006 18.0527C19.7643 15.9831 18.791 14.2043 17.1129 12.8619C15.9718 11.9781 14.6741 11.4187 13.2869 11.0048C12.5709 10.7922 12.4926 10.5909 12.7946 9.94201C13.8127 7.7605 14.7188 5.53425 15.7145 3.35274C15.7816 3.18493 15.8711 3.02831 15.8823 2.83813C15.927 2.55845 15.8152 2.40183 15.5579 2.34589C15.3677 2.30114 15.1887 2.30114 14.9985 2.30114C13.0743 2.3347 11.1165 2.3347 9.16997 2.3347Z" fill="#3A8031"/>
<path d="M35.2474 17.8961C37.5631 17.8961 39.8118 17.8961 42.0492 17.8961C42.4631 17.8961 42.4631 17.8961 42.4631 18.31C42.4631 18.8694 42.4631 19.4175 42.4631 19.9769C42.4631 20.1335 42.4407 20.1895 42.2506 20.1895C38.9839 20.1895 35.7508 20.1895 32.4841 20.1895C32.3275 20.1895 32.2716 20.1447 32.2939 19.9993C32.2939 19.3504 32.2939 18.7016 32.2939 18.0527C32.2939 17.8961 32.3611 17.8178 32.4506 17.7059C34.6768 14.8532 36.9031 11.9781 39.1517 9.12531C39.1965 9.05819 39.2636 8.99107 39.3195 8.89038C39.1853 8.89038 39.107 8.89038 39.0175 8.89038C36.9814 8.89038 34.9789 8.89038 32.9428 8.89038C32.7079 8.89038 32.6408 8.82326 32.6631 8.58833C32.6855 8.00659 32.6855 7.42486 32.6631 6.82075C32.6631 6.65294 32.7079 6.58582 32.8757 6.58582C35.941 6.58582 39.0175 6.58582 42.0828 6.58582C42.2506 6.58582 42.2953 6.63056 42.2953 6.79837C42.2953 7.44723 42.2953 8.07372 42.2953 8.72257C42.2953 8.8792 42.2282 8.9575 42.1387 9.06937C39.9124 11.8997 37.7086 14.7525 35.4823 17.5828C35.4264 17.6612 35.3592 17.7618 35.2474 17.8961Z" fill="black"/>
<path d="M50.6969 18.5673C50.6074 18.5673 50.585 18.6344 50.5626 18.7016C50.1263 19.7196 49.3544 20.3013 48.2469 20.4132C46.6919 20.581 45.4165 20.044 44.8348 18.4443C44.667 18.008 44.5775 17.5381 44.5551 17.0794C44.488 15.6698 44.5327 14.2714 44.5327 12.8842C44.5327 12.0228 44.5327 11.139 44.5327 10.2664C44.5327 10.0762 44.5775 10.0091 44.79 10.0091C45.4389 10.0315 46.1101 10.0315 46.759 10.0091C46.9716 10.0091 47.0387 10.0538 47.0387 10.2888C47.0387 12.2354 47.0387 14.2043 47.0387 16.1397C47.0387 16.4417 47.0611 16.7662 47.1058 17.0682C47.2736 17.952 47.8218 18.4107 48.7503 18.4107C49.03 18.4107 49.2873 18.3659 49.5446 18.2765C50.3053 18.0415 50.7305 17.4598 50.7305 16.6543C50.7305 14.5399 50.7305 12.392 50.7305 10.2776C50.7305 10.065 50.7752 9.97554 51.0101 9.99791C51.6814 10.0203 52.3526 10.0203 53.0462 9.99791C53.2028 9.99791 53.2364 10.0427 53.2364 10.1881C53.2364 13.4548 53.2364 16.7102 53.2364 19.9545C53.2364 20.1223 53.1916 20.1447 53.0238 20.1447C52.3302 20.1447 51.6366 20.1447 50.9542 20.1447C50.7864 20.1447 50.7416 20.1 50.7416 19.9322C50.764 19.5406 50.7416 19.1491 50.7416 18.7687C50.7416 18.7128 50.764 18.6344 50.6969 18.5673Z" fill="black"/>
<path d="M64.5019 15.1105C64.5019 16.0614 64.5019 16.99 64.5019 17.9409C64.5019 18.1087 64.5467 18.1758 64.7369 18.1758C65.2291 18.1534 65.7325 18.1758 66.2471 18.1758C66.415 18.1758 66.4373 18.2206 66.4373 18.366C66.4373 18.903 66.4373 19.4512 66.4373 20.0105C66.4373 20.1 66.4597 20.2007 66.3031 20.2007C65.6095 20.2007 64.8935 20.2454 64.2111 20.1783C62.7903 20.0217 62.0296 19.1603 62.0296 17.6948C62.0296 15.9272 62.0296 14.126 62.0296 12.3585C62.0296 12.1459 62.0072 12.0564 61.7499 12.0788C61.4031 12.1012 61.0563 12.0788 60.7095 12.0788C60.5529 12.0788 60.5193 12.034 60.5193 11.8886C60.5193 11.3292 60.5193 10.7811 60.5193 10.2217C60.5193 10.0651 60.564 10.0315 60.7095 10.0315C60.922 10.0315 61.1458 10.0315 61.3583 10.0315C61.9624 10.0091 62.2421 9.75184 62.2645 9.14773C62.2869 8.58837 62.2869 8.04019 62.2645 7.48083C62.2645 7.32421 62.3092 7.29065 62.4547 7.29065C63.0588 7.29065 63.6853 7.29065 64.2894 7.29065C64.446 7.29065 64.4796 7.3354 64.4796 7.48083C64.4796 8.26394 64.4796 9.01348 64.4796 9.79658C64.4796 9.98677 64.5243 10.0539 64.7145 10.0539C65.2515 10.0315 65.7997 10.0539 66.359 10.0539C66.5268 10.0539 66.5716 10.0986 66.5716 10.2664C66.5492 10.8034 66.5492 11.3516 66.5716 11.8662C66.5716 12.034 66.5044 12.0788 66.359 12.0788C65.822 12.0788 65.2739 12.0788 64.7592 12.0788C64.5467 12.0788 64.5019 12.1459 64.5019 12.3585C64.5019 13.2311 64.5019 14.1596 64.5019 15.1105Z" fill="black"/>
<path d="M56.1227 15.0658C56.1227 13.466 56.1227 11.8439 56.1227 10.2441C56.1227 10.0539 56.1675 10.0092 56.3576 10.0092C57.0289 10.0315 57.7001 10.0092 58.3937 10.0092C58.5615 10.0092 58.6286 10.0315 58.6286 10.2217C58.6286 13.466 58.6286 16.7215 58.6286 19.9658C58.6286 20.1336 58.5839 20.1783 58.4161 20.1783C57.7225 20.1783 57.0513 20.156 56.3688 20.1783C56.1786 20.1783 56.1339 20.1112 56.1339 19.9434C56.1451 18.3101 56.1227 16.6879 56.1227 15.0658Z" fill="black"/>
<path d="M58.8412 7.08927C58.886 8.23036 58.1476 8.62192 57.0513 8.49886C56.2681 8.40936 55.9437 7.98425 55.9325 7.15639C55.8654 5.9258 56.6038 5.64612 57.4652 5.64612C58.3937 5.66849 58.8412 6.11598 58.8412 7.08927Z" fill="black"/>
<path d="M9.16997 2.33472C11.1389 2.33472 13.1079 2.33472 15.0433 2.33472C15.2334 2.33472 15.4348 2.33472 15.6026 2.37946C15.8823 2.44659 15.9718 2.59202 15.927 2.8717C15.9047 3.03951 15.8376 3.21851 15.7592 3.38631C14.7636 5.56782 13.8574 7.81645 12.8394 9.97558C12.5373 10.6468 12.6268 10.837 13.3316 11.0384C14.7188 11.4523 16.0165 12.0117 17.1576 12.8954C18.8469 14.2379 19.8202 15.9831 20.2453 18.0863C20.5697 19.7085 20.4355 21.3306 20.0775 22.9528C19.9656 23.4114 19.7083 23.624 19.2385 23.6687C18.4777 23.7359 17.7282 23.6687 16.9898 23.6911C15.6474 23.6911 14.2937 23.6687 12.9513 23.6911C10.8592 23.7359 8.75605 23.6911 6.66404 23.7135C6.47386 23.7135 6.27249 23.7135 6.10468 23.6687C5.93687 23.624 5.86975 23.5121 5.89212 23.3443C5.91449 23.1318 6.00399 22.9528 6.0823 22.7626C7.01084 20.5811 7.96175 18.3996 8.93504 16.2628C9.02454 16.095 9.09166 15.916 9.1476 15.7482C9.2371 15.4685 9.1476 15.3119 8.91267 15.1664C8.65536 15.0322 8.37568 14.9763 8.11838 14.8868C6.1718 14.2155 4.49372 13.1975 3.22956 11.5977C1.93185 9.93083 1.39486 8.02901 1.41723 5.937C1.41723 5.17627 1.50673 4.4491 1.62979 3.68837C1.81997 2.69271 2.2339 2.32353 3.25194 2.3459C5.2097 2.37947 7.17865 2.40184 9.16997 2.33472ZM15.4796 22.192C16.1732 22.1696 16.8444 22.1696 17.5268 22.1696C18.1533 22.1696 18.4106 21.9795 18.5672 21.3865C19.0259 19.5966 18.8917 17.8402 17.9855 16.1957C16.8668 14.1596 15.088 13.0409 12.817 12.6941C12.2353 12.6046 12.0003 12.7612 11.7542 13.2982C10.5907 15.9943 9.41609 18.7016 8.23025 21.3977C7.95057 22.0018 8.07363 22.1808 8.72248 22.1808C10.9823 22.192 13.2309 22.192 15.4796 22.192ZM3.02819 6.29499C3.02819 7.85001 3.375 9.14773 4.04623 10.1881C5.18733 11.9781 6.89897 12.9066 8.94623 13.2758C9.59509 13.3877 9.78527 13.2758 10.0538 12.6941C11.1949 10.0315 12.3471 7.38015 13.5106 4.71759C13.8127 4.00161 13.7008 3.8338 12.9513 3.85618C10.0761 3.87855 7.20102 3.94567 4.32591 3.87855C3.67705 3.85618 3.375 4.11348 3.24075 4.73997C3.11769 5.34408 3.05057 5.94819 3.02819 6.29499Z" fill="#FEFEFE"/>
<path d="M15.4796 22.192C13.2309 22.192 10.9823 22.192 8.73367 22.192C8.06244 22.192 7.95057 22.0242 8.24144 21.4089C9.42728 18.7128 10.6131 16.0055 11.7654 13.3093C12.0003 12.7724 12.2353 12.6157 12.8282 12.7052C15.0992 13.052 16.8668 14.1484 17.9967 16.1845C18.9029 17.829 19.0371 19.5742 18.5784 21.3753C18.4218 21.9794 18.1421 22.1584 17.538 22.1584C16.8444 22.1696 16.1732 22.192 15.4796 22.192Z" fill="#387F2F"/>
<path d="M3.0282 6.29495C3.0282 5.94815 3.09532 5.34404 3.21838 4.73993C3.35263 4.11345 3.65468 3.85614 4.30354 3.87851C7.17865 3.94564 10.0538 3.87851 12.9289 3.85614C13.712 3.85614 13.8127 4.02395 13.4882 4.71755C12.3471 7.38011 11.1949 10.0315 10.0314 12.694C9.77409 13.2981 9.57272 13.41 8.92386 13.2758C6.8766 12.9066 5.16496 11.9781 4.02386 10.1881C3.375 9.14769 3.0282 7.87235 3.0282 6.29495Z" fill="#387F2F"/>
</svg>
